TITLE ""
FILE "Step1_Track46.mp3" MP3
  TRACK 01 AUDIO
    TITLE "Step1_Track46_01"
    INDEX 01 00:00:00
  TRACK 02 AUDIO
    TITLE "Step1_Track46_02"
    INDEX 01 00:00:22
  TRACK 03 AUDIO
    TITLE "Step1_Track46_03"
    INDEX 01 00:02:03
  TRACK 04 AUDIO
    TITLE "Step1_Track46_04"
    INDEX 01 00:02:56
  TRACK 05 AUDIO
    TITLE "Step1_Track46_05"
    INDEX 01 00:03:58
  TRACK 06 AUDIO
    TITLE "Step1_Track46_06"
    INDEX 01 00:04:00
  TRACK 07 AUDIO
    TITLE "Step1_Track46_07"
    INDEX 01 00:04:69
  TRACK 08 AUDIO
    TITLE "Step1_Track46_08"
    INDEX 01 00:05:29
  TRACK 09 AUDIO
    TITLE "Step1_Track46_09"
    INDEX 01 00:07:32
  TRACK 10 AUDIO
    TITLE "Step1_Track46_10"
    INDEX 01 00:07:65
  TRACK 11 AUDIO
    TITLE "Step1_Track46_11"
    INDEX 01 00:08:65
  TRACK 12 AUDIO
    TITLE "Step1_Track46_12"
    INDEX 01 00:08:69
  TRACK 13 AUDIO
    TITLE "Step1_Track46_13"
    INDEX 01 00:12:17
  TRACK 14 AUDIO
    TITLE "Step1_Track46_14"
    INDEX 01 00:12:45
  TRACK 15 AUDIO
    TITLE "Step1_Track46_15"
    INDEX 01 00:13:42
  TRACK 16 AUDIO
    TITLE "Step1_Track46_16"
    INDEX 01 00:13:62
  TRACK 17 AUDIO
    TITLE "Step1_Track46_17"
    INDEX 01 00:14:61
  TRACK 18 AUDIO
    TITLE "Step1_Track46_18"
    INDEX 01 00:15:00
  TRACK 19 AUDIO
    TITLE "Step1_Track46_19"
    INDEX 01 00:17:03
  TRACK 20 AUDIO
    TITLE "Step1_Track46_20"
    INDEX 01 00:17:50
  TRACK 21 AUDIO
    TITLE "Step1_Track46_21"
    INDEX 01 00:18:47
  TRACK 22 AUDIO
    TITLE "Step1_Track46_22"
    INDEX 01 00:18:59
  TRACK 23 AUDIO
    TITLE "Step1_Track46_23"
    INDEX 01 00:21:50
  TRACK 24 AUDIO
    TITLE "Step1_Track46_24"
    INDEX 01 00:22:14
  TRACK 25 AUDIO
    TITLE "Step1_Track46_25"
    INDEX 01 00:23:15
  TRACK 26 AUDIO
    TITLE "Step1_Track46_26"
    INDEX 01 00:23:25
  TRACK 27 AUDIO
    TITLE "Step1_Track46_27"
    INDEX 01 00:24:25
  TRACK 28 AUDIO
    TITLE "Step1_Track46_28"
    INDEX 01 00:24:38
  TRACK 29 AUDIO
    TITLE "Step1_Track46_29"
    INDEX 01 00:26:51
  TRACK 30 AUDIO
    TITLE "Step1_Track46_30"
    INDEX 01 00:26:68
  TRACK 31 AUDIO
    TITLE "Step1_Track46_31"
    INDEX 01 00:27:72
  TRACK 32 AUDIO
    TITLE "Step1_Track46_32"
    INDEX 01 00:28:03
  TRACK 33 AUDIO
    TITLE "Step1_Track46_33"
    INDEX 01 00:31:21
  TRACK 34 AUDIO
    TITLE "Step1_Track46_34"
    INDEX 01 00:31:46
  TRACK 35 AUDIO
    TITLE "Step1_Track46_35"
    INDEX 01 00:32:44
  TRACK 36 AUDIO
    TITLE "Step1_Track46_36"
    INDEX 01 00:32:61
  TRACK 37 AUDIO
    TITLE "Step1_Track46_37"
    INDEX 01 00:33:63
  TRACK 38 AUDIO
    TITLE "Step1_Track46_38"
    INDEX 01 00:33:69
  TRACK 39 AUDIO
    TITLE "Step1_Track46_39"
    INDEX 01 00:36:32
  TRACK 40 AUDIO
    TITLE "Step1_Track46_40"
    INDEX 01 00:37:08
  TRACK 41 AUDIO
    TITLE "Step1_Track46_41"
    INDEX 01 00:38:07
  TRACK 42 AUDIO
    TITLE "Step1_Track46_42"
    INDEX 01 00:38:21
  TRACK 43 AUDIO
    TITLE "Step1_Track46_43"
    INDEX 01 00:40:73
  TRACK 44 AUDIO
    TITLE "Step1_Track46_44"
    INDEX 01 00:41:45
  TRACK 45 AUDIO
    TITLE "Step1_Track46_45"
    INDEX 01 00:42:42
  TRACK 46 AUDIO
    TITLE "Step1_Track46_46"
    INDEX 01 00:42:71
  TRACK 47 AUDIO
    TITLE "Step1_Track46_47"
    INDEX 01 00:44:00
  TRACK 48 AUDIO
    TITLE "Step1_Track46_48"
    INDEX 01 00:44:37
  TRACK 49 AUDIO
    TITLE "Step1_Track46_49"
    INDEX 01 00:46:59
  TRACK 50 AUDIO
    TITLE "Step1_Track46_50"
    INDEX 01 00:47:33
  TRACK 51 AUDIO
    TITLE "Step1_Track46_51"
    INDEX 01 00:48:33
  TRACK 52 AUDIO
    TITLE "Step1_Track46_52"
    INDEX 01 00:48:58
  TRACK 53 AUDIO
    TITLE "Step1_Track46_53"
    INDEX 01 00:51:16
  TRACK 54 AUDIO
    TITLE "Step1_Track46_54"
    INDEX 01 00:51:68
  TRACK 55 AUDIO
    TITLE "Step1_Track46_55"
    INDEX 01 00:52:74
  TRACK 56 AUDIO
    TITLE "Step1_Track46_56"
    INDEX 01 00:53:16
  TRACK 57 AUDIO
    TITLE "Step1_Track46_57"
    INDEX 01 00:54:14
  TRACK 58 AUDIO
    TITLE "Step1_Track46_58"
    INDEX 01 00:54:31
  TRACK 59 AUDIO
    TITLE "Step1_Track46_59"
    INDEX 01 00:57:20
  TRACK 60 AUDIO
    TITLE "Step1_Track46_60"
    INDEX 01 00:57:51
  TRACK 61 AUDIO
    TITLE "Step1_Track46_61"
    INDEX 01 00:58:59
  TRACK 62 AUDIO
    TITLE "Step1_Track46_62"
    INDEX 01 00:58:68
  TRACK 63 AUDIO
    TITLE "Step1_Track46_63"
    INDEX 01 01:02:11
